<!-- Generator: Adobe Illustrator 22.0.1, SVG Export Plug-In  -->
<svg version="1.1"
	 xmlns="http://www.w3.org/2000/svg" xmlns:xlink="http://www.w3.org/1999/xlink" xmlns:a="http://ns.adobe.com/AdobeSVGViewerExtensions/3.0/"
	 x="0px" y="0px" width="245.3px" height="87px" viewBox="0 0 245.3 87" style="enable-background:new 0 0 245.3 87;"
	 xml:space="preserve">
<style type="text/css">
	.st0{fill:#1A1A1A;stroke:#FFFFFF;stroke-width:2;stroke-miterlimit:10;}
	.st1{fill:#C69C6D;}
	.st2{fill:#FFFFFF;}
</style>
<defs>
</defs>
<path class="st0" d="M120.1,41"/>
<g>
	<g>
		<path class="st1" d="M17.9,84.8c-2,0.4-3.9,0.6-5.8,0.5c-1.9-0.1-3.6-0.4-5.1-1.1c-1.5-0.7-2.7-1.7-3.6-3
			c-0.9-1.3-1.4-3.1-1.4-5.1c0-12.5,0-25.1,0-37.6c0-2.1,0.5-3.9,1.4-5.4c0.9-1.6,2.1-2.8,3.6-3.8c1.5-1,3.2-1.7,5.2-2.2
			c1.9-0.5,3.9-0.7,5.9-0.7c2,0,4,0.2,5.9,0.7c1.9,0.5,3.6,1.2,5.1,2.1c1.5,0.9,2.7,2,3.6,3.4c0.9,1.4,1.3,3,1.3,4.8
			c0,2.1,0,3.2,0,5.4c-2.4,0.1-3.6,0.2-6.1,0.3c-1.4,0.1-2.5-0.2-3.4-0.9c-0.9-0.7-1.4-1.7-1.4-2.9c0,0,0,0,0-0.1
			c0-0.5-0.1-1-0.2-1.5c-0.1-0.5-0.4-0.9-0.7-1.3c-0.3-0.4-0.9-0.7-1.5-0.9c-0.7-0.2-1.6-0.3-2.6-0.3c-1,0-1.9,0.2-2.5,0.5
			c-0.6,0.3-1.2,0.6-1.5,1c-0.4,0.4-0.6,0.8-0.8,1.3c-0.1,0.5-0.2,0.9-0.2,1.3C13,50.5,13,61.9,13,73.3c0,0.7,0.5,1.4,1.4,2
			c1,0.6,2.1,0.7,3.5,0.5c1.4-0.2,2.6-0.8,3.6-1.5c1-0.8,1.5-1.6,1.5-2.4c0-0.3,0-0.5,0-0.8c0-1.2,0.4-2.2,1.1-3.1
			c0.7-0.9,1.8-1.5,3.3-1.7c2.6-0.3,3.8-0.5,6.4-0.8c0,2.2,0,3.3,0,5.4c0,1.8-0.5,3.5-1.4,5c-0.9,1.5-2.1,2.9-3.6,4
			c-1.5,1.2-3.2,2.2-5.1,3C21.9,83.8,19.9,84.4,17.9,84.8z"/>
		<path class="st1" d="M74.7,68.5c0.4,0.2,0.8,0.5,1.2,0.9c0.4,0.4,0.6,1,0.6,1.8c0,1.8,0,2.7,0,4.6c-6.5,0.6-9.8,0.9-16.3,1.7
			c0-1.6,0-2.3,0-3.9c0-0.8,0.2-1.6,0.6-2.3c0.4-0.7,0.8-1.2,1.2-1.5c0.3-0.2,0.5-0.4,0.7-0.6c0.2-0.2,0.3-0.5,0.3-0.9
			c0-0.3-0.1-0.7-0.2-1c0-0.3-0.1-0.5-0.2-0.8c-0.1-0.3-0.1-0.5-0.2-0.8c-0.1-0.3-0.3-0.6-0.6-0.7c-0.3-0.1-0.6-0.1-1.1-0.1
			c-3.1,0.3-4.6,0.4-7.6,0.7c-0.5,0-0.8,0.1-1,0.2c-0.2,0.1-0.3,0.4-0.5,0.8c-0.1,0.2-0.1,0.5-0.2,0.8c-0.1,0.3-0.1,0.6-0.2,0.9
			c-0.1,0.3-0.2,0.7-0.2,1.1c0,0.4,0.1,0.7,0.2,0.9c0.1,0.2,0.3,0.3,0.6,0.5c0.4,0.2,0.8,0.6,1.2,1.3c0.4,0.7,0.6,1.4,0.6,2.2
			c0,1.6,0,2.3,0,3.9c-6.4,0.9-9.6,1.3-16,2.4c0-2,0-3,0-5c0-0.8,0.2-1.5,0.6-2.1c0.4-0.6,0.8-1,1.2-1.3c0.3-0.2,0.5-0.5,0.7-0.7
			c0.2-0.3,0.4-0.6,0.5-1c1.5-6.5,3-12.3,4.2-17.3c0.6-2.1,1.1-4.2,1.6-6.3c0.5-2,1-3.8,1.4-5.4c0.4-1.6,0.7-2.9,1-3.9
			c0.2-1,0.4-1.5,0.4-1.5c0.1-0.4,0.2-0.7,0.2-1c0-0.3-0.1-0.5-0.4-0.6c-0.6-0.2-1.1-0.6-1.5-1.1C47.1,33,47,32.2,47,31.1
			c0-1.6,0-2.4,0-4c5,0,7.5,0,12.6,0c1.2,0,2.2,0.3,3,0.9c0.7,0.6,1.2,1.3,1.3,2.1c0,0.2,0.1,0.9,0.4,2c0.3,1.2,0.7,2.7,1.1,4.5
			c0.5,1.8,1,3.8,1.6,6c0.6,2.2,1.2,4.5,1.7,6.7c1.4,5.3,3,11.3,4.8,17.9C73.7,67.8,74.1,68.2,74.7,68.5z M60,57.4
			c0.4,0,0.6-0.1,0.7-0.2c0.1-0.1,0.1-0.2,0.1-0.5c0-0.1-0.1-0.6-0.3-1.4c-0.2-0.8-0.4-1.9-0.6-3.1c-0.2-1.2-0.5-2.5-0.8-3.9
			c-0.3-1.4-0.6-2.7-0.8-3.9c-0.2-1.2-0.4-2.2-0.6-3c-0.2-0.8-0.3-1.2-0.3-1.3c0-0.2-0.1-0.3-0.2-0.2c-0.1,0-0.2,0.1-0.3,0.2
			c0,0-0.1,0.5-0.3,1.3c-0.2,0.8-0.4,1.9-0.7,3.1c-0.3,1.2-0.6,2.6-0.9,4c-0.3,1.4-0.6,2.8-0.9,4.1c-0.3,1.3-0.5,2.4-0.7,3.2
			c-0.2,0.9-0.3,1.4-0.3,1.5c-0.1,0.3,0,0.4,0.1,0.5c0.1,0.1,0.4,0.1,0.7,0C56.5,57.7,57.7,57.6,60,57.4z"/>
		<path class="st1" d="M120.7,27c0,1.7,0,2.5,0,4.2c0,0.7-0.2,1.2-0.6,1.7c-0.4,0.4-0.8,0.8-1.3,1c-0.2,0.1-0.3,0.2-0.4,0.3
			c-0.1,0.1-0.2,0.4-0.3,0.7c0,12.3,0,24.7,0,37c0,0.7-0.2,1.2-0.5,1.5c-0.4,0.2-0.8,0.4-1.4,0.4c-2,0-3,0-5,0.1
			c-1.5,0-2.6-0.4-3.2-1.4c-0.2-0.2-0.6-1-1.3-2.3c-0.7-1.3-1.5-2.7-2.5-4.5c-1-1.7-2-3.6-3.1-5.5c-1.1-2-2.1-3.8-3-5.5
			c-0.9-1.7-1.7-3.1-2.3-4.2c-0.6-1.1-1-1.7-1-1.8c0,0,0,0-0.1,0c-0.1,0-0.1,0.2-0.1,0.4c0,6.8,0,10.2-0.1,17.1
			c0,0.4,0.1,0.7,0.3,0.8c0.2,0.2,0.5,0.3,0.7,0.4c0.4,0.2,0.8,0.5,1.2,1c0.4,0.4,0.6,1,0.6,1.7c0,1.7,0,2.5,0,4.2
			c-6.6,0.3-9.8,0.5-16.4,1.1c0-1.8,0-2.6,0-4.4c0-0.7,0.2-1.3,0.6-1.8c0.4-0.5,0.8-0.8,1.3-1.1c0.2-0.1,0.3-0.3,0.5-0.4
			c0.1-0.1,0.2-0.4,0.3-0.7c0.1-10.8,0.1-21.5,0.2-32.3c-0.5-0.1-1-0.3-1.5-0.6c-0.4-0.3-0.7-0.6-1-1.1c-0.3-0.5-0.4-1.1-0.4-1.8
			c0-1.7,0-2.6,0-4.3c4.5,0,6.8,0,11.3,0c0.6,0,1.2,0.3,1.7,0.8c0.5,0.5,0.8,1,1,1.4c0.1,0.3,0.5,1,1,2.2c0.6,1.2,1.3,2.5,2.2,4.2
			c0.9,1.6,1.8,3.3,2.8,5.2c1,1.8,1.9,3.6,2.8,5.2c0.9,1.6,1.6,3,2.2,4.2c0.6,1.2,1,2,1.2,2.3c0.1,0.1,0.1,0.1,0.1,0
			c0-0.1,0-0.2,0-0.3c0-6.8,0-10.1,0-16.9c0-0.4-0.1-0.7-0.3-0.8c-0.2-0.2-0.5-0.3-0.7-0.5c-0.4-0.2-0.8-0.5-1.1-1
			c-0.4-0.4-0.6-1-0.6-1.8c0-1.7,0-2.5,0-4.1C111,27,114.3,27,120.7,27z"/>
		<path class="st1" d="M142.6,74.4c-2-0.1-4-0.3-5.9-0.7c-1.9-0.4-3.7-1-5.1-1.8c-1.5-0.8-2.7-1.8-3.6-3c-0.9-1.2-1.4-2.6-1.4-4.2
			c0-9.7,0-19.3,0-29c0-1.6,0.5-3,1.4-4.1c0.9-1.2,2.1-2.2,3.7-2.9c1.5-0.8,3.2-1.4,5.2-1.7c1.9-0.4,3.9-0.6,5.9-0.6
			c2,0,4,0.2,5.9,0.6c1.9,0.4,3.6,1,5.1,1.8c1.5,0.8,2.7,1.8,3.6,3c0.9,1.2,1.4,2.6,1.4,4.3c0,1.9,0,2.8,0,4.7
			c-2.4,0-3.7-0.1-6.1-0.1c-1.4,0-2.5-0.4-3.4-1c-0.9-0.6-1.4-1.5-1.4-2.5c0,0,0,0,0-0.1c0-0.4-0.1-0.8-0.2-1.3
			c-0.1-0.4-0.4-0.8-0.7-1.1c-0.4-0.3-0.9-0.6-1.5-0.8c-0.7-0.2-1.6-0.3-2.6-0.3c-1,0-1.9,0.1-2.5,0.3c-0.6,0.2-1.2,0.5-1.5,0.7
			c-0.4,0.3-0.6,0.6-0.8,1c-0.1,0.4-0.2,0.7-0.2,1c0,9.1,0,18.3,0.1,27.4c0,0.6,0.5,1.2,1.5,1.8c1,0.6,2.2,1,3.6,1
			c1.4,0,2.6-0.2,3.7-0.6c1-0.5,1.5-1,1.5-1.7c0-0.3,0-0.4,0-0.6c0-1,0.4-1.8,1.1-2.5c0.7-0.7,1.8-1,3.3-0.9
			c2.6,0.1,3.9,0.2,6.4,0.3c0,1.9,0,2.9,0,4.8c0,1.6-0.4,3-1.4,4.2c-0.9,1.2-2.1,2.1-3.6,2.8c-1.5,0.7-3.2,1.2-5.1,1.5
			C146.6,74.3,144.6,74.4,142.6,74.4z"/>
		<path class="st1" d="M200.9,27.1c0,2,0,3,0,5c0,0.8-0.2,1.4-0.6,1.9c-0.4,0.5-0.9,0.9-1.3,1.2c-0.2,0.2-0.4,0.4-0.5,0.5
			c-0.1,0.2-0.2,0.5-0.3,0.9c0.1,10.8,0.1,21.6,0.2,32.4c0,1.8-0.4,3.2-1.3,4.5c-0.9,1.2-2,2.1-3.4,2.8c-1.4,0.7-3,1.1-4.9,1.3
			c-1.8,0.2-3.8,0.1-5.8-0.1c-2-0.2-4-0.6-5.9-1.2c-1.9-0.6-3.6-1.4-5.1-2.3c-1.5-1-2.7-2.1-3.6-3.4c-0.9-1.3-1.4-2.8-1.4-4.4
			c-0.1-10.1-0.1-20.1-0.2-30.2c0-0.4-0.1-0.7-0.2-0.9c-0.2-0.2-0.4-0.4-0.7-0.5c-0.4-0.2-0.9-0.6-1.3-1.1c-0.4-0.5-0.6-1.2-0.6-2
			c0-1.8,0-2.7,0-4.6c6.6,0,9.8,0,16.4,0c0,1.8,0,2.6,0,4.4c0,0.8-0.2,1.4-0.6,2.1c-0.4,0.6-0.9,1-1.3,1.3c-0.3,0.2-0.5,0.3-0.6,0.5
			c-0.1,0.2-0.2,0.5-0.2,0.9c0.1,9.5,0.1,19,0.2,28.6c0,1.7,0.5,3,1.4,3.7c0.9,0.8,2.1,1.2,3.6,1.4c1.5,0.1,2.7-0.1,3.6-0.7
			c0.9-0.6,1.3-1.8,1.3-3.5c-0.1-9.7-0.1-19.4-0.2-29.1c0-0.4-0.1-0.8-0.4-1.1c-0.2-0.3-0.5-0.6-0.8-0.8c-0.4-0.2-0.8-0.6-1.1-1.1
			c-0.3-0.5-0.5-1.2-0.5-2c0-1.7,0-2.6,0-4.4C191.4,27.1,194.5,27.1,200.9,27.1z"/>
		<path class="st1" d="M245.3,27.3c0,2.2,0,3.3,0,5.4c0,0.9-0.2,1.6-0.6,2.1s-0.8,1-1.3,1.3c-0.2,0.1-0.3,0.2-0.4,0.4
			c-0.1,0.2-0.2,0.5-0.3,0.8c0,15.9,0,31.8,0,47.6c0,1-0.2,1.6-0.5,1.8c-0.3,0.2-0.8,0.3-1.4,0.1c-2-0.4-2.9-0.7-4.9-1.1
			c-1.5-0.3-2.5-1.2-3.1-2.5c-0.2-0.3-0.6-1.4-1.3-3.1c-0.7-1.7-1.5-3.7-2.5-6c-1-2.3-2-4.7-3.1-7.3c-1.1-2.5-2.1-4.9-3-7
			c-0.9-2.1-1.7-3.9-2.4-5.3c-0.7-1.4-1-2.2-1-2.2c0,0,0-0.1-0.1,0c-0.1,0-0.1,0.2-0.1,0.5c0,6.6,0.1,13.3,0.1,19.9
			c0,0.4,0.1,0.8,0.3,1c0.2,0.2,0.5,0.4,0.7,0.6c0.4,0.3,0.8,0.8,1.2,1.4c0.4,0.6,0.6,1.3,0.6,2.2c0,2,0,3,0,5
			c-6.5-1.2-9.7-1.8-16.2-2.8c0-1.9,0-2.9,0-4.8c0-0.8,0.2-1.4,0.6-1.8c0.4-0.4,0.8-0.8,1.2-0.9c0.2-0.1,0.3-0.2,0.4-0.4
			c0.1-0.1,0.2-0.3,0.3-0.7c-0.1-11.9-0.1-23.9-0.2-35.8c-0.5-0.2-1-0.4-1.5-0.8c-0.4-0.3-0.7-0.7-1-1.2c-0.3-0.5-0.5-1.2-0.5-2
			c0-1.9,0-2.8,0-4.7c4.5,0,6.8,0,11.3,0c0.6,0,1.2,0.3,1.7,0.9c0.5,0.6,0.8,1.1,1,1.6c0.1,0.3,0.5,1.2,1.1,2.6c0.6,1.4,1.3,3,2.2,5
			c0.9,2,1.8,4.1,2.8,6.3c1,2.3,1.9,4.4,2.8,6.5c0.9,2.1,1.6,3.9,2.2,5.4c0.6,1.5,1,2.5,1.2,3c0.1,0.1,0.1,0.1,0.1,0
			c0-0.1,0-0.2,0-0.4c0-6.9,0-13.8-0.1-20.8c0-0.5-0.1-0.8-0.3-1.1c-0.2-0.2-0.5-0.4-0.7-0.6c-0.4-0.3-0.8-0.7-1.1-1.2
			c-0.4-0.5-0.6-1.3-0.6-2.2c0-2,0-3,0-5C235.5,27.2,238.8,27.2,245.3,27.3z"/>
	</g>
</g>
<g>
	<g>
		<path class="st2" d="M15.8,83.4c-2,0.4-3.9,0.6-5.8,0.5c-1.9-0.1-3.6-0.4-5.1-1.1c-1.5-0.7-2.7-1.7-3.6-3C0.5,78.5,0,76.8,0,74.8
			c0-12.5,0-25.1,0-37.6c0-2.1,0.5-3.9,1.4-5.4c0.9-1.6,2.1-2.8,3.6-3.8c1.5-1,3.2-1.7,5.2-2.2c1.9-0.5,3.9-0.7,5.9-0.7
			c2,0,4,0.2,5.9,0.7c1.9,0.5,3.6,1.2,5.1,2.1c1.5,0.9,2.7,2,3.6,3.4s1.3,3,1.3,4.8c0,2.1,0,3.2,0,5.4c-2.4,0.1-3.6,0.2-6.1,0.3
			c-1.4,0.1-2.5-0.2-3.4-0.9c-0.9-0.7-1.4-1.7-1.4-2.9c0,0,0,0,0-0.1c0-0.5-0.1-1-0.2-1.5c-0.1-0.5-0.4-0.9-0.7-1.3
			c-0.4-0.4-0.9-0.7-1.5-0.9c-0.7-0.2-1.6-0.3-2.6-0.3c-1,0-1.9,0.2-2.5,0.5c-0.6,0.3-1.2,0.6-1.5,1c-0.4,0.4-0.6,0.8-0.8,1.3
			c-0.1,0.5-0.2,0.9-0.2,1.3c0,11.4-0.1,22.7-0.1,34.1c0,0.7,0.5,1.4,1.4,2c1,0.6,2.1,0.7,3.5,0.5c1.4-0.2,2.6-0.8,3.6-1.5
			c1-0.8,1.5-1.6,1.5-2.4c0-0.3,0-0.5,0-0.8c0-1.2,0.4-2.2,1.1-3.1c0.7-0.9,1.8-1.5,3.3-1.7c2.6-0.3,3.8-0.5,6.4-0.8
			c0,2.2,0,3.3,0,5.4c0,1.8-0.5,3.5-1.4,5c-0.9,1.5-2.1,2.9-3.6,4c-1.5,1.2-3.2,2.2-5.1,3C19.7,82.4,17.8,83,15.8,83.4z"/>
		<path class="st2" d="M72.6,67.1c0.4,0.2,0.8,0.5,1.2,0.9c0.4,0.4,0.6,1,0.6,1.8c0,1.8,0,2.7,0,4.6c-6.5,0.6-9.8,0.9-16.3,1.7
			c0-1.6,0-2.3,0-3.9c0-0.8,0.2-1.6,0.6-2.3c0.4-0.7,0.8-1.2,1.2-1.5c0.3-0.2,0.5-0.4,0.7-0.6c0.2-0.2,0.3-0.5,0.3-0.9
			c0-0.3-0.1-0.7-0.2-1c0-0.3-0.1-0.5-0.2-0.8c-0.1-0.3-0.1-0.5-0.2-0.8c-0.1-0.3-0.3-0.6-0.6-0.7c-0.3-0.1-0.6-0.1-1.1-0.1
			c-3.1,0.3-4.6,0.4-7.6,0.7c-0.5,0-0.8,0.1-1,0.2c-0.2,0.1-0.3,0.4-0.5,0.8c-0.1,0.2-0.1,0.5-0.2,0.8c-0.1,0.3-0.1,0.6-0.2,0.9
			c-0.1,0.3-0.2,0.7-0.2,1.1c0,0.4,0.1,0.7,0.2,0.9c0.1,0.2,0.3,0.3,0.6,0.5c0.4,0.2,0.8,0.6,1.2,1.3c0.4,0.7,0.6,1.4,0.6,2.2
			c0,1.6,0,2.3,0,3.9c-6.4,0.9-9.6,1.3-16,2.4c0-2,0-3,0-5c0-0.8,0.2-1.5,0.6-2.1c0.4-0.6,0.8-1,1.2-1.3c0.3-0.2,0.5-0.5,0.7-0.7
			c0.2-0.3,0.4-0.6,0.5-1c1.5-6.5,3-12.3,4.2-17.3c0.6-2.1,1.1-4.2,1.6-6.3c0.5-2,1-3.8,1.4-5.4c0.4-1.6,0.7-2.9,1-3.9
			c0.2-1,0.4-1.5,0.4-1.5c0.1-0.4,0.2-0.7,0.2-1c0-0.3-0.1-0.5-0.4-0.6c-0.6-0.2-1.1-0.6-1.5-1.1c-0.4-0.5-0.6-1.3-0.6-2.4
			c0-1.6,0-2.4,0-4c5,0,7.5,0,12.6,0c1.2,0,2.2,0.3,3,0.9c0.7,0.6,1.2,1.3,1.3,2.1c0,0.2,0.1,0.9,0.4,2c0.3,1.2,0.7,2.7,1.1,4.5
			c0.5,1.8,1,3.8,1.6,6c0.6,2.2,1.2,4.5,1.7,6.7c1.4,5.3,3,11.3,4.8,17.9C71.6,66.3,72,66.8,72.6,67.1z M57.9,56
			c0.4,0,0.6-0.1,0.7-0.2c0.1-0.1,0.1-0.2,0.1-0.5c0-0.1-0.1-0.6-0.3-1.4c-0.2-0.8-0.4-1.9-0.6-3.1c-0.2-1.2-0.5-2.5-0.8-3.9
			c-0.3-1.4-0.6-2.7-0.8-3.9c-0.2-1.2-0.4-2.2-0.6-3c-0.2-0.8-0.3-1.2-0.3-1.3c0-0.2-0.1-0.3-0.2-0.2c-0.1,0-0.2,0.1-0.3,0.2
			c0,0-0.1,0.5-0.3,1.3c-0.2,0.8-0.4,1.9-0.7,3.1c-0.3,1.2-0.6,2.6-0.9,4c-0.3,1.4-0.6,2.8-0.9,4.1c-0.3,1.3-0.5,2.4-0.7,3.2
			c-0.2,0.9-0.3,1.4-0.3,1.5c-0.1,0.3,0,0.4,0.1,0.5c0.1,0.1,0.4,0.1,0.7,0C54.3,56.3,55.5,56.2,57.9,56z"/>
		<path class="st2" d="M118.6,25.6c0,1.7,0,2.5,0,4.2c0,0.7-0.2,1.2-0.6,1.7c-0.4,0.4-0.8,0.8-1.3,1c-0.2,0.1-0.3,0.2-0.4,0.3
			c-0.1,0.1-0.2,0.4-0.3,0.7c0,12.3,0,24.7,0,37c0,0.7-0.2,1.2-0.5,1.5c-0.4,0.2-0.8,0.4-1.4,0.4c-2,0-3,0-5,0.1
			c-1.5,0-2.6-0.4-3.2-1.4c-0.2-0.2-0.6-1-1.3-2.3c-0.7-1.3-1.5-2.7-2.5-4.5c-1-1.7-2-3.6-3.1-5.5c-1.1-2-2.1-3.8-3-5.5
			c-0.9-1.7-1.7-3.1-2.3-4.2c-0.6-1.1-1-1.7-1-1.8c0,0,0,0-0.1,0c-0.1,0-0.1,0.2-0.1,0.4c0,6.8,0,10.2-0.1,17.1
			c0,0.4,0.1,0.7,0.3,0.8c0.2,0.2,0.5,0.3,0.7,0.4c0.4,0.2,0.8,0.5,1.2,1c0.4,0.4,0.6,1,0.6,1.7c0,1.7,0,2.5,0,4.2
			c-6.6,0.3-9.8,0.5-16.4,1.1c0-1.8,0-2.6,0-4.4c0-0.7,0.2-1.3,0.6-1.8c0.4-0.5,0.8-0.8,1.3-1.1c0.2-0.1,0.3-0.3,0.5-0.4
			c0.1-0.1,0.2-0.4,0.3-0.7c0.1-12.9,0.1-19.4,0.2-32.3c-0.5-0.1-1-0.3-1.5-0.6c-0.4-0.3-0.7-0.6-1-1.1c-0.3-0.5-0.4-1.1-0.4-1.8
			c0-1.7,0-2.6,0-4.3c4.5,0,6.8,0,11.3,0c0.6,0,1.2,0.3,1.7,0.8c0.5,0.5,0.8,1,1,1.4c0.1,0.3,0.5,1,1,2.2c0.6,1.2,1.3,2.5,2.2,4.2
			c0.9,1.6,1.8,3.3,2.8,5.2c1,1.8,1.9,3.6,2.8,5.2c0.9,1.6,1.6,3,2.2,4.2c0.6,1.2,1,2,1.2,2.3c0.1,0.1,0.1,0.1,0.1,0
			c0-0.1,0-0.2,0-0.3c0-6.8,0-10.1,0-16.9c0-0.4-0.1-0.7-0.3-0.8c-0.2-0.2-0.5-0.3-0.7-0.5c-0.4-0.2-0.8-0.5-1.1-1
			c-0.4-0.4-0.6-1-0.6-1.8c0-1.7,0-2.5,0-4.1C108.9,25.6,112.1,25.6,118.6,25.6z"/>
		<path class="st2" d="M140.5,72.9c-2-0.1-4-0.3-5.9-0.7c-1.9-0.4-3.7-1-5.1-1.8c-1.5-0.8-2.7-1.8-3.6-3c-0.9-1.2-1.4-2.6-1.4-4.2
			c0-11.6,0-17.4,0-29c0-1.6,0.5-3,1.4-4.1c0.9-1.2,2.1-2.2,3.7-2.9c1.5-0.8,3.2-1.4,5.2-1.7c1.9-0.4,3.9-0.6,5.9-0.6
			c2,0,4,0.2,5.9,0.6c1.9,0.4,3.6,1,5.1,1.8c1.5,0.8,2.7,1.8,3.6,3c0.9,1.2,1.4,2.6,1.4,4.3c0,1.9,0,2.8,0,4.7
			c-2.4,0-3.7-0.1-6.1-0.1c-1.4,0-2.5-0.4-3.4-1c-0.9-0.6-1.4-1.5-1.4-2.5c0,0,0,0,0-0.1c0-0.4-0.1-0.8-0.2-1.3
			c-0.1-0.4-0.4-0.8-0.7-1.1c-0.4-0.3-0.9-0.6-1.5-0.8c-0.7-0.2-1.6-0.3-2.6-0.3c-1,0-1.9,0.1-2.5,0.3c-0.6,0.2-1.2,0.5-1.5,0.7
			c-0.4,0.3-0.6,0.6-0.8,1c-0.1,0.4-0.2,0.7-0.2,1c0,11,0,16.5,0.1,27.4c0,0.6,0.5,1.2,1.5,1.8c1,0.6,2.2,1,3.6,1
			c1.4,0,2.6-0.2,3.7-0.6c1-0.5,1.5-1,1.5-1.7c0-0.3,0-0.4,0-0.6c0-1,0.4-1.8,1.1-2.5c0.7-0.7,1.8-1,3.3-0.9
			c2.6,0.1,3.9,0.2,6.4,0.3c0,1.9,0,2.9,0,4.8c0,1.6-0.4,3-1.4,4.2c-0.9,1.2-2.1,2.1-3.6,2.8c-1.5,0.7-3.2,1.2-5.1,1.5
			C144.5,72.9,142.5,73,140.5,72.9z"/>
		<path class="st2" d="M198.8,25.7c0,2,0,3,0,5c0,0.8-0.2,1.4-0.6,1.9c-0.4,0.5-0.9,0.9-1.3,1.2c-0.2,0.2-0.4,0.4-0.5,0.5
			c-0.1,0.2-0.2,0.5-0.3,0.9c0.1,13,0.1,19.5,0.2,32.4c0,1.8-0.4,3.2-1.3,4.5c-0.9,1.2-2,2.1-3.4,2.8c-1.4,0.7-3,1.1-4.9,1.3
			c-1.8,0.2-3.8,0.1-5.8-0.1c-2-0.2-4-0.6-5.9-1.2c-1.9-0.6-3.6-1.4-5.1-2.3c-1.5-1-2.7-2.1-3.6-3.4c-0.9-1.3-1.4-2.8-1.4-4.4
			c-0.1-12.1-0.1-18.1-0.2-30.2c0-0.4-0.1-0.7-0.2-0.9c-0.2-0.2-0.4-0.4-0.7-0.5c-0.4-0.2-0.9-0.6-1.3-1.1c-0.4-0.5-0.6-1.2-0.6-2
			c0-1.8,0-2.7,0-4.6c6.6,0,9.8,0,16.4,0c0,1.8,0,2.6,0,4.4c0,0.8-0.2,1.4-0.6,2.1c-0.4,0.6-0.9,1-1.3,1.3c-0.3,0.2-0.5,0.3-0.6,0.5
			c-0.1,0.2-0.2,0.5-0.2,0.9c0.1,11.4,0.1,17.1,0.2,28.6c0,1.7,0.5,3,1.4,3.7c0.9,0.8,2.1,1.2,3.6,1.4c1.5,0.1,2.7-0.1,3.6-0.7
			c0.9-0.6,1.3-1.8,1.3-3.5c-0.1-11.7-0.1-17.5-0.2-29.1c0-0.4-0.1-0.8-0.4-1.1c-0.2-0.3-0.5-0.6-0.8-0.8c-0.4-0.2-0.8-0.6-1.1-1.1
			c-0.3-0.5-0.5-1.2-0.5-2c0-1.7,0-2.6,0-4.4C189.2,25.7,192.4,25.7,198.8,25.7z"/>
		<path class="st2" d="M243.2,25.8c0,2.2,0,3.3,0,5.4c0,0.9-0.2,1.6-0.6,2.1c-0.4,0.6-0.8,1-1.3,1.3c-0.2,0.1-0.3,0.2-0.4,0.4
			c-0.1,0.2-0.2,0.5-0.3,0.8c0,15.9,0,31.8,0,47.6c0,1-0.2,1.6-0.5,1.8c-0.3,0.2-0.8,0.3-1.4,0.1c-2-0.4-2.9-0.7-4.9-1.1
			c-1.5-0.3-2.5-1.2-3.1-2.5c-0.2-0.3-0.6-1.4-1.3-3.1c-0.7-1.7-1.5-3.7-2.5-6c-1-2.3-2-4.7-3.1-7.3c-1.1-2.5-2.1-4.9-3-7
			c-0.9-2.1-1.7-3.9-2.4-5.3c-0.7-1.4-1-2.2-1-2.2c0,0,0-0.1-0.1,0c-0.1,0-0.1,0.2-0.1,0.5c0,8,0.1,11.9,0.1,19.9
			c0,0.4,0.1,0.8,0.3,1c0.2,0.2,0.5,0.4,0.7,0.6c0.4,0.3,0.8,0.8,1.2,1.4c0.4,0.6,0.6,1.3,0.6,2.2c0,2,0,3,0,5
			c-6.5-1.2-9.7-1.8-16.2-2.8c0-1.9,0-2.9,0-4.8c0-0.8,0.2-1.4,0.6-1.8c0.4-0.4,0.8-0.8,1.2-0.9c0.2-0.1,0.3-0.2,0.4-0.4
			c0.1-0.1,0.2-0.3,0.3-0.7c-0.1-11.9-0.1-23.9-0.2-35.8c-0.5-0.2-1-0.4-1.5-0.8c-0.4-0.3-0.7-0.7-1-1.2c-0.3-0.5-0.5-1.2-0.5-2
			c0-1.9,0-2.8,0-4.7c4.5,0,6.8,0,11.3,0c0.6,0,1.2,0.3,1.7,0.9c0.5,0.6,0.8,1.1,1,1.6c0.1,0.3,0.5,1.2,1.1,2.6c0.6,1.4,1.3,3,2.2,5
			c0.9,2,1.8,4.1,2.8,6.3c1,2.3,1.9,4.4,2.8,6.5c0.9,2.1,1.6,3.9,2.2,5.4c0.6,1.5,1,2.5,1.2,3c0.1,0.1,0.1,0.1,0.1,0
			c0-0.1,0-0.2,0-0.4c0-8.3,0-12.5-0.1-20.8c0-0.5-0.1-0.8-0.3-1.1c-0.2-0.2-0.5-0.4-0.7-0.6c-0.4-0.3-0.8-0.7-1.1-1.2
			c-0.4-0.5-0.6-1.3-0.6-2.2c0-2,0-3,0-5C233.4,25.8,236.7,25.8,243.2,25.8z"/>
	</g>
</g>
<g>
	<path class="st1" d="M34.3,6.7L34.3,6.7c0-3.8,2.9-6.7,6.8-6.7c2.6,0,4.3,1.1,5.5,2.7l-2.7,2.1c-0.7-0.9-1.6-1.5-2.8-1.5
		c-1.8,0-3.1,1.5-3.1,3.4v0c0,1.9,1.3,3.4,3.1,3.4c1.3,0,2.1-0.6,2.9-1.6l2.7,1.9c-1.2,1.7-2.9,2.9-5.7,2.9
		C37.3,13.4,34.3,10.6,34.3,6.7z"/>
	<path class="st1" d="M56.2,0.2h3.4l5.5,13h-3.8l-0.9-2.3h-5l-0.9,2.3h-3.8L56.2,0.2z M59.3,8.1l-1.4-3.7l-1.5,3.7H59.3z"/>
	<path class="st1" d="M70.1,0.3h6.1c2,0,3.3,0.5,4.2,1.4c0.8,0.7,1.1,1.7,1.1,3v0c0,2-1,3.3-2.7,4l3.1,4.5h-4.1l-2.6-3.9h0h-1.5v3.9
		h-3.6V0.3z M76,6.4c1.2,0,1.9-0.6,1.9-1.5v0c0-1-0.7-1.5-1.9-1.5h-2.3v3.1H76z"/>
	<path class="st1" d="M87,0.3h5.5c3.3,0,5.4,1.7,5.4,4.5v0c0,3-2.3,4.6-5.5,4.6h-1.8v3.7H87V0.3z M92.2,6.7c1.3,0,2-0.7,2-1.7v0
		c0-1.1-0.8-1.7-2.1-1.7h-1.7v3.4H92.2z"/>
	<path class="st1" d="M103.1,0.3h3.6v12.9h-3.6V0.3z"/>
	<path class="st1" d="M112.7,0.3h3.3l5.3,6.8V0.3h3.5v12.9h-3.1l-5.5-7.1v7.1h-3.5V0.3z"/>
	<path class="st1" d="M134,3.4h-3.9V0.3h11.3v3.1h-3.9v9.8H134V3.4z"/>
	<path class="st1" d="M146.7,0.3H157v3h-6.8v2h6.2v2.8h-6.2v2h6.9v3h-10.5V0.3z"/>
	<path class="st1" d="M162.6,0.3h6.1c2,0,3.3,0.5,4.2,1.4c0.8,0.7,1.1,1.7,1.1,3v0c0,2-1,3.3-2.7,4l3.1,4.5h-4.1l-2.6-3.9h0h-1.5
		v3.9h-3.6V0.3z M168.5,6.4c1.2,0,1.9-0.6,1.9-1.5v0c0-1-0.7-1.5-1.9-1.5h-2.3v3.1H168.5z"/>
	<path class="st1" d="M179.6,0.3h3.6v12.9h-3.6V0.3z"/>
	<path class="st1" d="M193.7,0.2h3.4l5.5,13h-3.8l-0.9-2.3h-5l-0.9,2.3h-3.8L193.7,0.2z M196.8,8.1l-1.4-3.7l-1.5,3.7H196.8z"/>
</g>
</svg>
